<svg width="49" height="40" viewBox="0 0 49 40" fill="none" xmlns="http://www.w3.org/2000/svg">
<path d="M27.1776 31.4019L22.8293 26.9899L22.2831 31.1046L25.4278 34.5864L27.1776 32.811C27.5627 32.4202 27.5627 31.7927 27.1776 31.4019Z" fill="#197EC6"/>
<path d="M21.7863 30.5543L22.3271 26.4801L16.9034 20.9769C16.5182 20.5917 16.5182 19.9587 16.9034 19.5679L25.5473 10.7971L22.1517 7.39095C21.8964 7.54725 21.5971 7.63719 21.2771 7.63719C20.896 7.63719 20.5444 7.50965 20.2613 7.29437L18.1703 9.56397V13.5761L14.2308 17.7236L14.781 18.3103V22.8004L16.6806 24.9058L16.6843 24.9055L21.7863 30.5543Z" fill="#197EC6"/>
<path d="M25.9466 10.392L22.5813 7.01616C22.8251 6.7185 22.9717 6.33603 22.9717 5.91883C22.9717 4.9698 22.213 4.20045 21.2771 4.20045C20.3412 4.20045 19.5824 4.9698 19.5824 5.91883C19.5824 6.27431 19.6889 6.60459 19.8713 6.87867L17.6054 9.33809V13.3451L13.8411 17.308L13.1044 16.5225C13.329 16.2309 13.4629 15.864 13.4629 15.4654C13.4629 14.5163 12.7042 13.747 11.7683 13.747C10.8324 13.747 10.0737 14.5163 10.0737 15.4654C10.0737 16.4144 10.8324 17.1837 11.7683 17.1837C12.1071 17.1837 12.4228 17.0828 12.6876 16.9092L13.4489 17.721L10.2477 21.0912C9.98129 20.9143 9.6627 20.8114 9.32048 20.8114C8.38456 20.8114 7.62585 21.5808 7.62585 22.5298C7.62585 23.4788 8.38456 24.2482 9.32048 24.2482C9.6595 24.2482 9.97527 24.1473 10.2401 23.9733L12.0339 25.8817L16.4553 25.5001L21.5823 31.1767L21.0443 31.6157C20.7503 31.3669 20.372 31.2172 19.959 31.2172C19.0231 31.2172 18.2644 31.9865 18.2644 32.9355C18.2644 33.8846 19.0231 34.6539 19.959 34.6539C20.8949 34.6539 21.6537 33.8846 21.6537 32.9355C21.6537 32.612 21.5654 32.3093 21.4121 32.0509L21.9646 31.6L25.0282 34.992L21.2268 38.849C20.8417 39.2399 20.2232 39.2399 19.838 38.849L1.88798 20.6357C1.50284 20.2449 1.50284 19.6174 1.88798 19.2266L19.7025 1.15089C20.0876 0.760088 20.706 0.760088 21.0911 1.15089L27.3783 7.53024C27.7635 7.92103 27.7635 8.54851 27.3783 8.93931L25.9466 10.392Z" fill="#197EC6"/>
<path d="M19.959 31.4081C20.3124 31.4081 20.6374 31.5315 20.8943 31.7381L20.4359 32.1122C20.296 32.0288 20.1331 31.9809 19.959 31.9809C19.439 31.9809 19.0175 32.4083 19.0175 32.9355C19.0175 33.4628 19.439 33.8902 19.959 33.8902C20.479 33.8902 20.9004 33.4628 20.9004 32.9355C20.9004 32.7937 20.8699 32.6591 20.8151 32.538L21.2638 32.1718C21.392 32.3965 21.4653 32.6573 21.4653 32.9355C21.4653 33.7792 20.791 34.463 19.959 34.463C19.127 34.463 18.4526 33.7792 18.4526 32.9355C18.4526 32.0919 19.127 31.4081 19.959 31.4081Z" fill="#197EC6"/>
<path d="M9.32043 21.0024C9.61181 21.0024 9.8839 21.0863 10.1144 21.2315L9.70784 21.6595C9.58969 21.6053 9.45854 21.5752 9.32043 21.5752C8.80047 21.5752 8.37897 22.0026 8.37897 22.5298C8.37897 23.0571 8.80047 23.4845 9.32043 23.4845C9.45675 23.4845 9.5863 23.4551 9.70323 23.4023L10.1076 23.8325C9.87853 23.9751 9.60889 24.0573 9.32043 24.0573C8.4885 24.0573 7.81409 23.3735 7.81409 22.5298C7.81409 21.6862 8.4885 21.0024 9.32043 21.0024Z" fill="#197EC6"/>
<path d="M10.127 23.0227L10.5254 23.4467C10.7147 23.1913 10.8268 22.8739 10.8268 22.5298C10.8268 22.1887 10.7166 21.8738 10.5302 21.6196L10.1296 22.0413C10.2137 22.1842 10.262 22.3513 10.262 22.5298C10.262 22.7102 10.2126 22.8789 10.127 23.0227Z" fill="#197EC6"/>
<path d="M11.0151 22.5298C11.0151 22.9283 10.8813 23.295 10.6569 23.5865L12.2558 25.2877L15.9703 24.9671L14.2161 23.0229V18.5392L13.8384 18.1365L10.6624 21.4802C10.8836 21.7706 11.0151 22.1346 11.0151 22.5298Z" fill="#197EC6"/>
<path d="M19.7708 5.9188C19.7708 6.21896 19.8561 6.49889 20.0036 6.73498L20.4108 6.29308C20.3624 6.17815 20.3356 6.05164 20.3356 5.9188C20.3356 5.39157 20.7571 4.96415 21.2771 4.96415C21.7971 4.96415 22.2186 5.39157 22.2186 5.9188C22.2186 6.12647 22.1531 6.31864 22.0421 6.47532L22.4469 6.88128C22.6573 6.61859 22.7834 6.28363 22.7834 5.9188C22.7834 5.07521 22.1091 4.39136 21.2771 4.39136C20.4451 4.39136 19.7708 5.07521 19.7708 5.9188Z" fill="#197EC6"/>
<path d="M20.781 6.73029C20.925 6.82104 21.0951 6.87346 21.2771 6.87346C21.3847 6.87346 21.4879 6.85519 21.5841 6.82155L22.0131 7.25185C21.7955 7.37565 21.5444 7.44625 21.2771 7.44625C20.9457 7.44625 20.6394 7.33776 20.3907 7.15391L20.781 6.73029Z" fill="#197EC6"/>
<path d="M13.2746 15.4654C13.2746 15.8094 13.1624 16.1269 12.9731 16.3823L12.575 15.9578C12.6605 15.814 12.7098 15.6455 12.7098 15.4654C12.7098 14.9381 12.2883 14.5107 11.7683 14.5107C11.2483 14.5107 10.8268 14.9381 10.8268 15.4654C10.8268 15.9926 11.2483 16.42 11.7683 16.42C11.9048 16.42 12.0346 16.3905 12.1517 16.3375L12.5553 16.768C12.3263 16.9106 12.0568 16.9928 11.7683 16.9928C10.9363 16.9928 10.262 16.309 10.262 15.4654C10.262 14.6217 10.9363 13.9379 11.7683 13.9379C12.6003 13.9379 13.2746 14.6217 13.2746 15.4654Z" fill="#197EC6"/>
<path d="M47.668 20.251C47.6301 20.3666 47.5487 20.4546 47.4674 20.5372C46.0841 21.9298 44.7062 23.3169 43.3283 24.7094C42.1567 25.8928 40.9849 27.0762 39.8077 28.2596C38.4679 29.6081 37.128 30.9621 35.7881 32.3107C35.1263 32.9766 34.4645 33.6372 33.8027 34.3032C33.7647 34.3417 33.7322 34.3747 33.6942 34.4077C33.5748 34.5013 33.4284 34.4463 33.4012 34.2921C33.3959 34.2481 33.3959 34.2041 33.3959 34.1546C33.3959 32.5638 33.3959 30.9677 33.3959 29.3769C33.3959 29.2668 33.4284 29.1898 33.5043 29.1072C34.9636 27.6321 36.4174 26.157 37.8766 24.6874C38.6958 23.8562 39.5203 23.0251 40.3448 22.194C41.1639 21.3629 41.9884 20.5317 42.8076 19.7005C43.5833 18.919 44.3536 18.1319 45.1293 17.3503C45.1456 17.3338 45.1618 17.3172 45.1781 17.3007C45.2324 17.2237 45.2812 17.2457 45.3409 17.3063C46.0732 18.0493 46.8055 18.7979 47.5379 19.5409C47.6029 19.607 47.6518 19.6786 47.6789 19.7721C47.6952 19.7941 47.6897 19.8162 47.6897 19.8382C47.6952 19.8767 47.6789 19.9152 47.706 19.9427C47.706 19.9867 47.706 20.0363 47.706 20.0804C47.6789 20.1134 47.6952 20.1519 47.6897 20.1849C47.6843 20.207 47.6897 20.2289 47.668 20.251Z" fill="#00CC9C"/>
<path d="M32.2567 31.7823C32.2567 32.5749 32.2567 33.3619 32.2567 34.1546C32.2567 34.1932 32.2567 34.2316 32.2567 34.2756C32.2567 34.3803 32.1807 34.4243 32.1048 34.4628C32.0343 34.5069 31.9855 34.4353 31.9475 34.3968C31.7305 34.1876 31.519 33.9785 31.3074 33.7638C30.0489 32.4923 28.7903 31.2208 27.5264 29.9493C26.5391 28.9532 25.5519 27.9624 24.5646 26.9661C23.8919 26.2891 23.2192 25.6121 22.5467 24.9351C21.5539 23.9333 20.5558 22.9316 19.5631 21.9298C19.0749 21.4344 18.5812 20.9446 18.093 20.4546C18.0224 20.3831 17.9519 20.3115 17.914 20.207C17.8326 19.9702 17.8814 19.7612 18.0605 19.585C18.3914 19.2493 18.7277 18.908 19.0586 18.5723C19.46 18.1649 19.8614 17.7576 20.2574 17.3558C20.4039 17.2127 20.3713 17.2127 20.5124 17.3503C21.5865 18.4346 22.6551 19.519 23.7292 20.6033C25.438 22.3316 27.1413 24.0599 28.85 25.7882C29.6583 26.6083 30.4666 27.4285 31.2802 28.2486C31.5678 28.5403 31.8607 28.832 32.1536 29.1238C32.2241 29.1954 32.2513 29.2669 32.2513 29.3604C32.2567 30.164 32.2567 30.9732 32.2567 31.7823Z" fill="#00CC9C"/>
<path d="M44.5706 16.6568C40.8113 20.4437 37.0629 24.2251 33.3091 28.0009C33.2548 27.9459 33.2765 27.8908 33.2765 27.8413C33.2765 26.201 33.2765 24.5663 33.2711 22.9261C33.2711 22.8214 33.2982 22.7444 33.3741 22.6729C36.1949 19.8162 39.0157 16.954 41.8311 14.0973C41.8528 14.0754 41.8745 14.0589 41.8908 14.0368C41.9234 13.9982 41.9559 13.9982 41.9884 14.0313C42.0047 14.0478 42.021 14.0643 42.0373 14.0808C42.8618 14.9175 43.6863 15.7541 44.5109 16.5907C44.5326 16.6072 44.5435 16.6293 44.5706 16.6568Z" fill="#00CC9C"/>
<path d="M32.3489 28.0119C28.5842 24.2141 24.8358 20.4381 21.0819 16.6567C21.1253 16.6072 21.1633 16.5687 21.1958 16.5357C21.9879 15.7321 22.7798 14.9284 23.5719 14.1248C23.599 14.0973 23.6261 14.0698 23.6532 14.0423C23.6858 14.0038 23.7183 14.0093 23.7509 14.0423C23.778 14.0698 23.8051 14.0973 23.8322 14.1248C25.2968 15.611 26.7561 17.0916 28.2208 18.5777C29.5552 19.9318 30.8951 21.2858 32.235 22.6398C32.3326 22.7389 32.3652 22.8325 32.3652 22.9701C32.3597 24.5773 32.3652 26.19 32.3597 27.7973C32.3706 27.8523 32.3815 27.9183 32.3489 28.0119Z" fill="#00CC9C"/>
<path d="M32.3651 21.6215C32.3001 21.5555 32.2512 21.517 32.2133 21.473C29.6095 18.831 27.0056 16.189 24.4018 13.5469C24.2499 13.3928 24.2607 13.4313 24.3964 13.2882C25.2209 12.4571 26.0455 11.6314 26.87 10.8003C26.9731 10.6958 26.9731 10.7012 27.0761 10.8003C28.1394 11.8571 29.208 12.9195 30.2712 13.9763C30.9385 14.6422 31.6057 15.3027 32.2783 15.9687C32.3435 16.0293 32.376 16.0953 32.376 16.189C32.3706 17.9557 32.376 19.7281 32.376 21.4949C32.3706 21.5279 32.3651 21.5555 32.3651 21.6215Z" fill="#00CC9C"/>
<path d="M33.2765 21.605C33.2765 21.5335 33.2765 21.4839 33.2765 21.4344C33.2765 19.7061 33.2765 17.9778 33.2711 16.2495C33.2711 16.1229 33.3091 16.0403 33.3959 15.9522C34.4103 14.9505 35.4246 13.9432 36.4391 12.936C36.9924 12.3855 37.5456 11.8406 38.099 11.2901C38.2617 11.1251 38.4299 10.9709 38.5927 10.8058C38.7011 10.6958 38.7011 10.7233 38.7879 10.8113C38.8205 10.8498 38.8639 10.8829 38.8965 10.9159C39.6776 11.703 40.4641 12.4956 41.2453 13.2827C41.267 13.3047 41.2886 13.3322 41.3158 13.3543C41.3646 13.3928 41.3701 13.4368 41.3212 13.4753C41.2941 13.4974 41.2724 13.5249 41.2507 13.5469C38.6523 16.1834 36.0485 18.8254 33.4501 21.4619C33.4067 21.506 33.3633 21.5665 33.2765 21.605Z" fill="#00CC9C"/>
<path d="M33.2873 14.7744C33.2657 14.7138 33.2765 14.6532 33.2765 14.5982C33.2765 11.67 33.2765 8.74176 33.2765 5.81353C33.2765 5.7695 33.2765 5.71996 33.2765 5.67592C33.2765 5.61538 33.2983 5.56033 33.3579 5.53832C33.4175 5.51631 33.4772 5.51631 33.5315 5.56584C33.5532 5.58236 33.5749 5.60437 33.5911 5.62639C35.0504 7.10702 36.5096 8.58764 37.9689 10.0628C37.9797 10.0737 37.9905 10.0848 38.0068 10.1013C38.0773 10.1784 38.0773 10.1784 37.996 10.2609C37.8549 10.3985 37.7139 10.5361 37.5728 10.6737C36.8405 11.3838 36.1028 12.0938 35.3704 12.8039C34.7032 13.4479 34.0414 14.0918 33.3741 14.7358C33.3525 14.7469 33.3362 14.7744 33.2873 14.7744Z" fill="#00CC9C"/>
<path d="M32.3381 14.7799C30.7541 13.2497 29.1702 11.7195 27.5916 10.1893C27.6133 10.1233 27.6567 10.0958 27.6946 10.0572C29.143 8.58762 30.5968 7.1125 32.0452 5.64289C32.0669 5.62087 32.094 5.59335 32.1158 5.57133C32.17 5.51629 32.235 5.51078 32.3056 5.54381C32.3652 5.57133 32.3761 5.62637 32.3707 5.68692C32.3707 5.71995 32.3707 5.75297 32.3707 5.7915C32.3707 8.72523 32.3707 11.6589 32.3707 14.5982C32.3707 14.6532 32.3707 14.7138 32.3707 14.7688C32.3599 14.7688 32.349 14.7743 32.3381 14.7799Z" fill="#00CC9C"/>
</svg>
