<svg width="105" height="15" viewBox="0 0 105 15" fill="none" xmlns="http://www.w3.org/2000/svg">
<path d="M98.0277 10.302C98.344 11.4645 99.2019 12.0458 100.601 12.0458C101.502 12.0458 102.183 11.7366 102.645 11.1183L104.544 12.2313C103.643 13.5546 102.317 14.2162 100.565 14.2162C99.0559 14.2162 97.8451 13.7525 96.9325 12.8249C96.0199 11.8974 95.5636 10.7287 95.5636 9.31884C95.5636 7.92135 96.0138 6.75884 96.9143 5.8313C97.8147 4.8914 98.9707 4.42145 100.382 4.42145C101.721 4.42145 102.822 4.8914 103.686 5.8313C104.562 6.77121 105 7.93372 105 9.31884C105 9.62802 104.97 9.95575 104.909 10.302H98.0277ZM97.9912 8.44695H102.645C102.512 7.81623 102.232 7.34628 101.806 7.0371C101.392 6.72792 100.918 6.57333 100.382 6.57333C99.7495 6.57333 99.2262 6.74029 98.8125 7.0742C98.3988 7.39575 98.125 7.85333 97.9912 8.44695Z" fill="black"/>
<path d="M94.6632 6.98138H92.6007V10.8399C92.6007 11.1615 92.6798 11.3964 92.838 11.5449C92.9962 11.6933 93.2274 11.7798 93.5316 11.8046C93.8358 11.8169 94.213 11.8107 94.6632 11.786V13.9564C93.0448 14.142 91.901 13.9874 91.2318 13.4927C90.5747 12.998 90.2462 12.1137 90.2462 10.8399V6.98138H88.6582V4.68109H90.2462V2.80746L92.6007 2.08398V4.68109H94.6632V6.98138Z" fill="black"/>
<path d="M84.9534 4.68116H87.3079V13.9565H84.9534V12.862C84.2476 13.7648 83.2559 14.2162 81.9783 14.2162C80.7615 14.2162 79.715 13.7463 78.8389 12.8064C77.9749 11.8541 77.543 10.6916 77.543 9.31884C77.543 7.94608 77.9749 6.78976 78.8389 5.84985C79.715 4.89758 80.7615 4.42145 81.9783 4.42145C83.2559 4.42145 84.2476 4.87285 84.9534 5.77565V4.68116ZM80.6094 11.211C81.0839 11.6933 81.6862 11.9345 82.4163 11.9345C83.1464 11.9345 83.7488 11.6933 84.2233 11.211C84.71 10.7163 84.9534 10.0856 84.9534 9.31884C84.9534 8.55208 84.71 7.92753 84.2233 7.44522C83.7488 6.95053 83.1464 6.70319 82.4163 6.70319C81.6862 6.70319 81.0839 6.95053 80.6094 7.44522C80.1348 7.92753 79.8975 8.55208 79.8975 9.31884C79.8975 10.0856 80.1348 10.7163 80.6094 11.211Z" fill="black"/>
<path d="M72.568 4.42145C73.6145 4.42145 74.448 4.76773 75.0686 5.46029C75.7013 6.15285 76.0177 7.08038 76.0177 8.2429V13.9565H73.6631V8.40985C73.6631 7.85333 73.5293 7.42048 73.2616 7.1113C72.9939 6.80212 72.6167 6.64753 72.13 6.64753C71.5946 6.64753 71.1747 6.82686 70.8705 7.18551C70.5785 7.54415 70.4325 8.06357 70.4325 8.74377V13.9565H68.0779V8.40985C68.0779 7.85333 67.9441 7.42048 67.6764 7.1113C67.4087 6.80212 67.0315 6.64753 66.5448 6.64753C66.0215 6.64753 65.6017 6.82686 65.2853 7.18551C64.9811 7.54415 64.829 8.06357 64.829 8.74377V13.9565H62.4745V4.68116H64.829V5.66435C65.3766 4.83575 66.2223 4.42145 67.3661 4.42145C68.4856 4.42145 69.313 4.86666 69.8484 5.7571C70.4568 4.86666 71.3634 4.42145 72.568 4.42145Z" fill="black"/>
<path d="M57.965 13.9565V4.68115H60.3195V13.9565H57.965Z" fill="black"/>
<path d="M53.4553 13.9565V0.41449H55.8099V13.9565H53.4553Z" fill="black"/>
<path d="M46.3809 14.2162C44.4583 14.2162 42.8704 13.5669 41.617 12.2683C40.3637 10.9698 39.7371 9.36825 39.7371 7.46371C39.7371 5.5468 40.3637 3.94525 41.617 2.65907C42.8704 1.36052 44.4583 0.711243 46.3809 0.711243C47.5369 0.711243 48.6016 0.989504 49.575 1.54603C50.5607 2.09018 51.3273 2.83221 51.8748 3.77211L49.7028 5.05211C49.3864 4.47086 48.9362 4.01946 48.3521 3.69791C47.7681 3.364 47.111 3.19704 46.3809 3.19704C45.1397 3.19704 44.1359 3.59279 43.3693 4.38429C42.6148 5.17578 42.2376 6.20226 42.2376 7.46371C42.2376 8.71279 42.6148 9.73308 43.3693 10.5246C44.1359 11.3161 45.1397 11.7118 46.3809 11.7118C47.111 11.7118 47.7681 11.551 48.3521 11.2295C48.9484 10.8956 49.3986 10.4442 49.7028 9.8753L51.8748 11.1553C51.3273 12.0952 50.5668 12.8434 49.5933 13.3999C48.6198 13.9441 47.549 14.2162 46.3809 14.2162Z" fill="black"/>
<path d="M31.139 13.9565V0.41449H33.4936V13.9565H31.139Z" fill="black"/>
<path d="M26.6494 4.68116H29.004V13.9565H26.6494V12.862C25.9437 13.7648 24.952 14.2162 23.6743 14.2162C22.4575 14.2162 21.411 13.7463 20.5349 12.8064C19.671 11.8541 19.239 10.6916 19.239 9.31884C19.239 7.94608 19.671 6.78976 20.5349 5.84985C21.411 4.89758 22.4575 4.42145 23.6743 4.42145C24.952 4.42145 25.9437 4.87285 26.6494 5.77565V4.68116ZM22.3054 11.211C22.78 11.6933 23.3823 11.9345 24.1124 11.9345C24.8425 11.9345 25.4448 11.6933 25.9194 11.211C26.4061 10.7163 26.6494 10.0856 26.6494 9.31884C26.6494 8.55208 26.4061 7.92753 25.9194 7.44522C25.4448 6.95053 24.8425 6.70319 24.1124 6.70319C23.3823 6.70319 22.78 6.95053 22.3054 7.44522C21.8308 7.92753 21.5936 8.55208 21.5936 9.31884C21.5936 10.0856 21.8308 10.7163 22.3054 11.211Z" fill="black"/>
<path d="M11.1688 10.302C11.4851 11.4645 12.343 12.0458 13.7423 12.0458C14.6428 12.0458 15.3242 11.7366 15.7866 11.1183L17.6848 12.2313C16.7844 13.5546 15.4581 14.2162 13.7058 14.2162C12.197 14.2162 10.9862 13.7525 10.0736 12.8249C9.16102 11.8974 8.70471 10.7287 8.70471 9.31884C8.70471 7.92135 9.15494 6.75884 10.0554 5.8313C10.9558 4.8914 12.1118 4.42145 13.5233 4.42145C14.8618 4.42145 15.963 4.8914 16.827 5.8313C17.7031 6.77121 18.1411 7.93372 18.1411 9.31884C18.1411 9.62802 18.1107 9.95575 18.0499 10.302H11.1688ZM11.1323 8.44695H15.7866C15.6528 7.81623 15.3729 7.34628 14.947 7.0371C14.5333 6.72792 14.0587 6.57333 13.5233 6.57333C12.8906 6.57333 12.3673 6.74029 11.9536 7.0742C11.5399 7.39575 11.2661 7.85333 11.1323 8.44695Z" fill="black"/>
<path d="M9.54031 0.970947V3.41964H6.09063V13.9565H3.57181V3.41964H0.140381V0.970947H9.54031Z" fill="black"/>
<ellipse cx="59.1518" cy="1.99995" rx="1.49726" ry="1.52174" fill="#197EC6"/>
</svg>
