<svg width="20" height="12" viewBox="0 0 20 12" fill="none" xmlns="http://www.w3.org/2000/svg">
<path d="M16.225 1.99688L14.7375 0.509375C14.4083 0.183064 13.9635 -1.04042e-05 13.5 4.43473e-10H6.4125C5.95 4.43473e-10 5.50313 0.184375 5.175 0.509375L3.6875 1.99688H0V9.9875H2C2.55 9.9875 2.99375 9.54375 2.99688 8.99687H3.28125L5.925 11.3844C6.89062 12.1687 8.23125 12.1875 9.225 11.5031C9.61563 11.8406 10.0375 12 10.5094 12C11.0781 12 11.6125 11.7688 12.0344 11.25C12.725 11.5219 13.5406 11.3313 14.0344 10.725L14.8531 9.71562C15.0281 9.5 15.1375 9.25313 15.1938 8.99687H17.0031C17.0062 9.54375 17.4531 9.9875 18 9.9875H20V1.99688H16.225ZM1.5 8.9875C1.225 8.9875 1 8.7625 1 8.4875C1 8.2125 1.225 7.9875 1.5 7.9875C1.775 7.9875 2 8.2125 2 8.4875C2 8.76562 1.775 8.9875 1.5 8.9875ZM13.6875 8.77188L12.8719 9.77812C12.7844 9.88437 12.6281 9.90312 12.5188 9.81563L11.7719 9.20938L10.8344 10.35C10.6469 10.5781 10.3656 10.5 10.2719 10.425L9.12187 9.44063L8.63437 10.0406C8.2 10.575 7.40938 10.6562 6.90625 10.2469L3.86562 7.49687H3V3.49375H4.30937L6.2375 1.56875C6.3 1.54375 6.35313 1.52188 6.41563 1.49688H8.1875L6.97813 2.60625C6.05938 3.44687 6.00625 4.86562 6.84062 5.77187C7.30312 6.27812 8.75313 7.05938 10.0125 5.90938L10.2688 5.675L13.65 8.41875C13.7562 8.50625 13.7719 8.66563 13.6875 8.77188ZM17 7.49687H14.8375C14.7656 7.40937 14.6844 7.32813 14.5969 7.25625L11.3875 4.65L11.7781 4.29375C11.9812 4.10625 11.9969 3.79063 11.8094 3.5875L11.4688 3.22188C11.2812 3.01875 10.9656 3.00625 10.7625 3.19063L9.0375 4.77187C8.74063 5.04375 8.23438 5.06562 7.95625 4.77187C7.66563 4.4625 7.69063 3.9875 7.99375 3.7125L10.0437 1.83437C10.275 1.62187 10.575 1.50625 10.8875 1.50625L13.5031 1.5C13.5688 1.5 13.6313 1.525 13.675 1.57188L15.6031 3.49687H17V7.49687ZM18.5 8.9875C18.225 8.9875 18 8.7625 18 8.4875C18 8.2125 18.225 7.9875 18.5 7.9875C18.775 7.9875 19 8.2125 19 8.4875C19 8.76562 18.775 8.9875 18.5 8.9875Z" fill="white"/>
</svg>
