<svg width="19" height="20" viewBox="0 0 19 20" fill="none" xmlns="http://www.w3.org/2000/svg">
<path d="M14.1353 9.01684V5.52716C14.1353 3.39279 14.1353 2.32608 13.4419 1.66304C12.7476 1 11.6319 1 9.39772 1H5.45193C3.21777 1 2.10203 1 1.40772 1.66304C0.7134 2.32608 0.714294 3.39279 0.714294 5.52716V11.5634C0.714294 13.6977 0.714295 14.7644 1.40772 15.4275C2.10203 16.0905 3.21777 16.0905 5.45193 16.0905H8.31956M3.3985 4.77263H11.4511H3.3985ZM3.3985 8.54526H4.29324H3.3985ZM6.97745 8.54526H7.87219H6.97745ZM10.5564 8.54526H11.4511H10.5564ZM3.3985 12.3179H4.29324H3.3985ZM6.97745 12.3179H7.87219H6.97745Z" fill="#00CC9C"/>
<path d="M14.1353 9.01684V5.52716C14.1353 3.39279 14.1353 2.32608 13.4419 1.66304C12.7476 1 11.6319 1 9.39772 1H5.45193C3.21777 1 2.10203 1 1.40772 1.66304C0.7134 2.32608 0.714294 3.39279 0.714294 5.52716V11.5634C0.714294 13.6977 0.714295 14.7644 1.40772 15.4275C2.10203 16.0905 3.21777 16.0905 5.45193 16.0905H8.31956M3.3985 4.77263H11.4511M3.3985 8.54526H4.29324M6.97745 8.54526H7.87219M10.5564 8.54526H11.4511M3.3985 12.3179H4.29324M6.97745 12.3179H7.87219" stroke="white" stroke-width="1.4" stroke-linecap="round" stroke-linejoin="round"/>
<path d="M14.1353 18.92C16.1119 18.92 17.7143 17.231 17.7143 15.1474C17.7143 13.0638 16.1119 11.3748 14.1353 11.3748C12.1587 11.3748 10.5564 13.0638 10.5564 15.1474C10.5564 17.231 12.1587 18.92 14.1353 18.92Z" fill="#00CC9C" stroke="white" stroke-width="1.4" stroke-linecap="round" stroke-linejoin="round"/>
<path d="M15.0301 15.619L14.1354 15.1474V13.7327" fill="#00CC9C"/>
<path d="M15.0301 15.619L14.1354 15.1474V13.7327" stroke="white" stroke-width="1.4" stroke-linecap="round" stroke-linejoin="round"/>
</svg>
