<svg width="25" height="25" viewBox="0 0 25 25" fill="none" xmlns="http://www.w3.org/2000/svg">
<path d="M24.9607 12.7081C24.9294 12.8039 24.8621 12.8769 24.7948 12.9453C23.651 14.0997 22.5116 15.2495 21.3723 16.4038C20.4034 17.3847 19.4345 18.3657 18.4611 19.3466C17.3532 20.4644 16.2453 21.5868 15.1373 22.7046C14.59 23.2567 14.0428 23.8042 13.4956 24.3563C13.4642 24.3882 13.4373 24.4156 13.4059 24.4429C13.3072 24.5205 13.186 24.4749 13.1636 24.3471C13.1592 24.3106 13.1592 24.2741 13.1592 24.2331C13.1592 22.9145 13.1592 21.5914 13.1592 20.2728C13.1592 20.1815 13.186 20.1177 13.2489 20.0492C14.4555 18.8265 15.6577 17.6037 16.8643 16.3855C17.5416 15.6966 18.2234 15.0076 18.9052 14.3187C19.5825 13.6298 20.2643 12.9408 20.9417 12.2518C21.5831 11.604 22.2201 10.9515 22.8615 10.3036C22.875 10.29 22.8884 10.2763 22.9019 10.2626C22.9468 10.1987 22.9871 10.217 23.0365 10.2672C23.642 10.8831 24.2476 11.5036 24.8532 12.1195C24.9069 12.1743 24.9473 12.2336 24.9698 12.3112C24.9832 12.3294 24.9787 12.3477 24.9787 12.3659C24.9832 12.3978 24.9698 12.4298 24.9922 12.4526C24.9922 12.4891 24.9922 12.5301 24.9922 12.5667C24.9698 12.5941 24.9832 12.626 24.9787 12.6533C24.9742 12.6716 24.9787 12.6898 24.9607 12.7081Z" fill="#00CC9C"/>
<path d="M12.2167 22.2664C12.2167 22.9235 12.2167 23.5759 12.2167 24.2329C12.2167 24.2649 12.2167 24.2968 12.2167 24.3332C12.2167 24.42 12.1539 24.4565 12.091 24.4884C12.0327 24.5249 11.9924 24.4656 11.9609 24.4337C11.7816 24.2603 11.6066 24.0869 11.4316 23.9089C10.391 22.855 9.35034 21.8011 8.30522 20.7471C7.48881 19.9213 6.67248 19.1001 5.85608 18.2742C5.29985 17.713 4.74361 17.1518 4.18746 16.5907C3.36654 15.7603 2.54126 14.9299 1.72034 14.0995C1.31669 13.6889 0.908445 13.2828 0.504719 12.8767C0.44641 12.8174 0.388102 12.7581 0.356729 12.6714C0.289467 12.4752 0.329793 12.3019 0.477862 12.1559C0.751502 11.8776 1.02958 11.5947 1.30322 11.3164C1.63509 10.9787 1.96704 10.6411 2.29447 10.3081C2.41561 10.1894 2.38867 10.1894 2.50537 10.3035C3.39347 11.2023 4.27714 12.1011 5.16532 12.9999C6.57829 14.4326 7.98673 15.8652 9.3997 17.2978C10.068 17.9777 10.7364 18.6575 11.4092 19.3373C11.647 19.5791 11.8892 19.8209 12.1314 20.0627C12.1897 20.1221 12.2122 20.1814 12.2122 20.2589C12.2167 20.925 12.2167 21.5958 12.2167 22.2664Z" fill="#00CC9C"/>
<path d="M22.3991 9.72854C19.2906 12.8676 16.191 16.0021 13.087 19.132C13.0422 19.0864 13.0601 19.0407 13.0601 18.9996C13.0601 17.64 13.0601 16.285 13.0557 14.9253C13.0557 14.8386 13.0781 14.7747 13.1408 14.7154C15.4734 12.3475 17.8059 9.97497 20.1339 7.60698C20.1519 7.58878 20.1698 7.57509 20.1832 7.55681C20.2102 7.52484 20.2371 7.52484 20.264 7.55222C20.2774 7.56591 20.2909 7.5796 20.3044 7.59329C20.9862 8.28682 21.668 8.98034 22.3498 9.67378C22.3678 9.68747 22.3767 9.70575 22.3991 9.72854Z" fill="#00CC9C"/>
<path d="M12.2932 19.1412C9.18022 15.9932 6.08065 12.8632 2.97656 9.72874C3.01245 9.68767 3.0439 9.65578 3.07076 9.6284C3.72571 8.96225 4.38058 8.29611 5.03552 7.62997C5.05794 7.60718 5.08036 7.58439 5.10278 7.5616C5.12972 7.52963 5.15658 7.53422 5.18351 7.5616C5.20593 7.58439 5.22835 7.60718 5.25077 7.62997C6.46188 8.86191 7.66854 10.0892 8.87964 11.3211C9.98308 12.4435 11.091 13.5658 12.199 14.6883C12.2797 14.7704 12.3066 14.8479 12.3066 14.962C12.3021 16.2943 12.3066 17.6311 12.3021 18.9634C12.3112 19.0089 12.3201 19.0637 12.2932 19.1412Z" fill="#00CC9C"/>
<path d="M12.3071 13.844C12.2533 13.7893 12.2129 13.7574 12.1816 13.7209C10.0285 11.5309 7.87532 9.34086 5.72224 7.15084C5.59667 7.02304 5.60562 7.05501 5.71781 6.93639C6.39961 6.24746 7.08141 5.56303 7.76322 4.8741C7.84846 4.78745 7.84846 4.79196 7.93363 4.8741C8.81286 5.7501 9.69653 6.6307 10.5757 7.50671C11.1274 8.05874 11.6791 8.60626 12.2353 9.1583C12.2892 9.20855 12.3161 9.26323 12.3161 9.34086C12.3116 10.8054 12.3161 12.2746 12.3161 13.7391C12.3116 13.7665 12.3071 13.7893 12.3071 13.844Z" fill="#00CC9C"/>
<path d="M13.0601 13.8305C13.0601 13.7712 13.0601 13.7301 13.0601 13.6891C13.0601 12.2564 13.0601 10.8238 13.0557 9.39117C13.0557 9.28624 13.087 9.21779 13.1588 9.14475C13.9976 8.3144 14.8364 7.47947 15.6752 6.64453C16.1327 6.18825 16.5903 5.73656 17.0479 5.28028C17.1824 5.14345 17.3214 5.01565 17.456 4.87883C17.5457 4.78759 17.5457 4.81038 17.6175 4.88334C17.6444 4.91531 17.6803 4.94269 17.7072 4.97007C18.3532 5.62253 19.0035 6.27949 19.6495 6.93195C19.6674 6.95023 19.6853 6.97302 19.7078 6.9913C19.7481 7.02319 19.7526 7.05967 19.7122 7.09164C19.6898 7.10992 19.6719 7.13271 19.6539 7.15099C17.5054 9.33641 15.3523 11.5264 13.2037 13.7119C13.1678 13.7484 13.1319 13.7986 13.0601 13.8305Z" fill="#00CC9C"/>
<path d="M13.0698 8.16836C13.0519 8.11819 13.0608 8.06794 13.0608 8.02236C13.0608 5.5951 13.0608 3.16781 13.0608 0.740536C13.0608 0.70404 13.0608 0.662978 13.0608 0.626474C13.0608 0.576287 13.0788 0.530659 13.1281 0.512411C13.1775 0.494163 13.2268 0.494163 13.2716 0.535225C13.2896 0.548915 13.3075 0.567163 13.321 0.585411C14.5277 1.81274 15.7343 3.04005 16.9409 4.26281C16.9499 4.27191 16.9588 4.28109 16.9723 4.29478C17.0306 4.35864 17.0306 4.35864 16.9633 4.42709C16.8467 4.54113 16.7301 4.65516 16.6134 4.76927C16.0079 5.35786 15.3979 5.94637 14.7923 6.53497C14.2406 7.0688 13.6933 7.60255 13.1416 8.13639C13.1237 8.14557 13.1102 8.16836 13.0698 8.16836Z" fill="#00CC9C"/>
<path d="M12.2843 8.17291C10.9745 6.90449 9.66475 5.63614 8.35938 4.36771C8.37736 4.31295 8.41324 4.29016 8.44462 4.25819C9.64225 3.04002 10.8444 1.81726 12.0421 0.599066C12.06 0.58081 12.0824 0.558004 12.1004 0.539748C12.1453 0.494128 12.1991 0.489562 12.2574 0.516942C12.3067 0.539748 12.3157 0.585376 12.3112 0.635563C12.3112 0.662943 12.3112 0.690315 12.3112 0.722253C12.3112 3.15408 12.3112 5.58589 12.3112 8.02232C12.3112 8.0679 12.3112 8.11815 12.3112 8.16373C12.3023 8.16373 12.2933 8.16832 12.2843 8.17291Z" fill="#00CC9C"/>
</svg>
