<svg width="16" height="18" viewBox="0 0 16 18" fill="none" xmlns="http://www.w3.org/2000/svg">
<path d="M11.6659 16.0258L9.90313 12.8088C10.7626 12.1432 11.3589 11.1078 11.4817 9.9245H15.0159C14.9435 11.1454 14.6033 12.3319 14.0219 13.3907C13.4406 14.4494 12.6341 15.3515 11.6659 16.0258ZM8.87706 4.40557V0.680054C12.6481 0.920409 15.6649 4.1005 15.8929 8.07561H12.3587C12.2604 7.13784 11.862 6.26334 11.2292 5.59621C10.5963 4.92908 9.76668 4.50913 8.87706 4.40557ZM3.61515 9.46228C3.61515 10.0539 3.72916 10.6178 3.94841 11.1263L0.896502 12.9844C0.373918 11.8923 0.103478 10.6855 0.107216 9.46228C0.107216 5.27454 3.21174 1.8541 7.12309 1.6045V5.33001C5.14988 5.56112 3.61515 7.31756 3.61515 9.46228ZM7.56158 17.3201C4.95694 17.3201 2.66801 15.9334 1.33499 13.7887L4.3869 11.9305C4.75203 12.4564 5.22998 12.8838 5.78172 13.1779C6.33346 13.4719 6.94335 13.6242 7.56158 13.6223C8.12285 13.6223 8.65781 13.5021 9.14015 13.271L10.9029 16.4881C9.89436 17.0242 8.76305 17.3201 7.56158 17.3201Z" fill="white"/>
</svg>
