<svg width="20" height="20" viewBox="0 0 60 60" fill="none" xmlns="http://www.w3.org/2000/svg">
              <path fill-rule="evenodd" clip-rule="evenodd" d="M13.6208 59.9999V19.5161H0.760275V59.9998H13.6208V59.9999ZM7.19191 13.9907C11.6752 13.9907 14.468 10.8795 14.468 6.99464C14.3832 3.02346 11.6752 0 7.27598 0C2.87601 0.00012284 0 3.02359 0 6.99476C0 10.8796 2.79124 13.9909 7.10725 13.9909L7.19191 13.9907ZM20.7387 59.9999C20.7387 59.9999 20.9074 23.3146 20.7387 19.5162H33.6012V25.3872H33.5159C35.2072 22.6246 38.2541 18.5656 45.1918 18.5656C53.6558 18.5656 60 24.3517 60 36.7868V60H47.1395V38.3423C47.1395 32.9004 45.2787 29.1869 40.6232 29.1869C37.0709 29.1869 34.9539 31.6904 34.0242 34.1104C33.684 34.9717 33.6012 36.1816 33.6012 37.3915V59.9999H20.7387Z" fill="white"/>
              </svg>