<svg width="27" height="39" viewBox="0 0 27 39" fill="none" xmlns="http://www.w3.org/2000/svg">
<path d="M13.4167 18.2083C12.1458 18.2083 10.9271 17.7035 10.0284 16.8049C9.12984 15.9063 8.625 14.6875 8.625 13.4167C8.625 12.1458 9.12984 10.9271 10.0284 10.0284C10.9271 9.12983 12.1458 8.625 13.4167 8.625C14.6875 8.625 15.9063 9.12983 16.8049 10.0284C17.7035 10.9271 18.2083 12.1458 18.2083 13.4167C18.2083 14.0459 18.0844 14.669 17.8436 15.2504C17.6028 15.8317 17.2498 16.3599 16.8049 16.8049C16.3599 17.2498 15.8317 17.6028 15.2504 17.8436C14.669 18.0844 14.0459 18.2083 13.4167 18.2083ZM13.4167 0C9.85835 0 6.44576 1.41354 3.92965 3.92965C1.41354 6.44576 0 9.85835 0 13.4167C0 23.4792 13.4167 38.3333 13.4167 38.3333C13.4167 38.3333 26.8333 23.4792 26.8333 13.4167C26.8333 9.85835 25.4198 6.44576 22.9037 3.92965C20.3876 1.41354 16.975 0 13.4167 0Z" fill="black"/>
</svg>
