<svg width="84" height="68" viewBox="0 0 84 68" fill="none" xmlns="http://www.w3.org/2000/svg">
<path d="M46.6147 53.3833L39.1566 45.8828L38.2197 52.8779L43.6134 58.797L46.6147 55.7787C47.2753 55.1144 47.2753 54.0477 46.6147 53.3833Z" fill="white"/>
<path d="M37.3672 51.9423L38.2947 45.0162L28.9921 35.6608C28.3315 35.0058 28.3315 33.9298 28.9921 33.2654L43.8181 18.355L37.994 12.5646C37.5561 12.8303 37.0428 12.9832 36.4939 12.9832C35.8402 12.9832 35.2371 12.7664 34.7516 12.4004L31.1651 16.2587V23.0793L24.4082 30.1301L25.3519 31.1275V38.7607L28.61 42.3399L28.6163 42.3394L37.3672 51.9423Z" fill="white"/>
<path d="M44.5032 17.6663L38.731 11.9275C39.1492 11.4215 39.4006 10.7713 39.4006 10.062C39.4006 8.44867 38.0993 7.14078 36.494 7.14078C34.8888 7.14078 33.5874 8.44867 33.5874 10.062C33.5874 10.6663 33.77 11.2278 34.0828 11.6937L30.1964 15.8748V22.6867L23.74 29.4237L22.4764 28.0882C22.8617 27.5926 23.0913 26.9689 23.0913 26.2911C23.0913 24.6778 21.7899 23.3699 20.1847 23.3699C18.5794 23.3699 17.2781 24.6778 17.2781 26.2911C17.2781 27.9045 18.5794 29.2124 20.1847 29.2124C20.7658 29.2124 21.3073 29.0408 21.7615 28.7456L23.0672 30.1258L17.5766 35.8551C17.1197 35.5544 16.5732 35.3794 15.9862 35.3794C14.381 35.3794 13.0796 36.6874 13.0796 38.3007C13.0796 39.914 14.381 41.2219 15.9862 41.2219C16.5677 41.2219 17.1093 41.0504 17.5636 40.7547L20.6402 43.9989L28.2237 43.3502L37.0175 53.0004L36.0948 53.7467C35.5905 53.3238 34.9416 53.0692 34.2333 53.0692C32.6281 53.0692 31.3267 54.3771 31.3267 55.9904C31.3267 57.6038 32.6281 58.9117 34.2333 58.9117C35.8386 58.9117 37.1399 57.6038 37.1399 55.9904C37.1399 55.4404 36.9886 54.9258 36.7256 54.4865L37.6733 53.72L42.9278 59.4863L36.4078 66.0434C35.7472 66.7078 34.6864 66.7078 34.0258 66.0434L3.23812 35.0807C2.57753 34.4164 2.57753 33.3497 3.23812 32.6853L33.7933 1.95652C34.4539 1.29216 35.5145 1.29216 36.1751 1.95652L46.9588 12.8014C47.6194 13.4658 47.6194 14.5325 46.9588 15.1968L44.5032 17.6663Z" fill="white"/>
<path d="M34.2336 53.3938C34.8398 53.3938 35.3972 53.6036 35.8378 53.9548L35.0516 54.5909C34.8117 54.449 34.5321 54.3675 34.2336 54.3675C33.3417 54.3675 32.6188 55.0941 32.6188 55.9905C32.6188 56.8868 33.3417 57.6134 34.2336 57.6134C35.1254 57.6134 35.8483 56.8868 35.8483 55.9905C35.8483 55.7493 35.796 55.5205 35.702 55.3147L36.4717 54.6921C36.6914 55.0742 36.8172 55.5175 36.8172 55.9905C36.8172 57.4246 35.6605 58.5871 34.2336 58.5871C32.8066 58.5871 31.6499 57.4246 31.6499 55.9905C31.6499 54.5563 32.8066 53.3938 34.2336 53.3938Z" fill="white"/>
<path d="M15.986 35.7041C16.4858 35.7041 16.9525 35.8468 17.3477 36.0936L16.6505 36.8212C16.4478 36.7291 16.2229 36.6778 15.986 36.6778C15.0942 36.6778 14.3712 37.4044 14.3712 38.3008C14.3712 39.1971 15.0942 39.9237 15.986 39.9237C16.2198 39.9237 16.442 39.8737 16.6426 39.7839L17.3361 40.5152C16.9432 40.7577 16.4808 40.8974 15.986 40.8974C14.5591 40.8974 13.4023 39.7349 13.4023 38.3008C13.4023 36.8666 14.5591 35.7041 15.986 35.7041Z" fill="white"/>
<path d="M17.3696 39.1385L18.053 39.8593C18.3777 39.4251 18.5701 38.8855 18.5701 38.3006C18.5701 37.7208 18.381 37.1854 18.0612 36.7532L17.3742 37.4702C17.5184 37.7131 17.6012 37.9971 17.6012 38.3006C17.6012 38.6072 17.5166 38.894 17.3696 39.1385Z" fill="white"/>
<path d="M18.8927 38.3007C18.8927 38.9781 18.6633 39.6016 18.2783 40.0971L21.0209 42.9891L27.3918 42.4441L24.383 39.1389V31.5167L23.7353 30.832L18.2878 36.5164C18.6672 37.01 18.8927 37.6288 18.8927 38.3007Z" fill="white"/>
<path d="M33.9102 10.062C33.9102 10.5723 34.0566 11.0481 34.3095 11.4495L35.0079 10.6983C34.9249 10.5029 34.879 10.2878 34.879 10.062C34.879 9.16569 35.602 8.43908 36.4938 8.43908C37.3857 8.43908 38.1086 9.16569 38.1086 10.062C38.1086 10.415 37.9964 10.7417 37.806 11.0081L38.5002 11.6982C38.8611 11.2516 39.0775 10.6822 39.0775 10.062C39.0775 8.62789 37.9208 7.46533 36.4938 7.46533C35.0668 7.46533 33.9102 8.62789 33.9102 10.062Z" fill="white"/>
<path d="M35.643 11.4417C35.89 11.5959 36.1817 11.685 36.494 11.685C36.6784 11.685 36.8555 11.654 37.0205 11.5968L37.7562 12.3283C37.3831 12.5388 36.9524 12.6588 36.494 12.6588C35.9255 12.6588 35.4001 12.4744 34.9736 12.1618L35.643 11.4417Z" fill="white"/>
<path d="M22.7684 26.2912C22.7684 26.8761 22.5759 27.4159 22.2512 27.85L21.5684 27.1283C21.7151 26.8839 21.7995 26.5975 21.7995 26.2912C21.7995 25.3949 21.0766 24.6683 20.1847 24.6683C19.2929 24.6683 18.5699 25.3949 18.5699 26.2912C18.5699 27.1876 19.2929 27.9142 20.1847 27.9142C20.4189 27.9142 20.6414 27.864 20.8423 27.7739L21.5345 28.5057C21.1418 28.7482 20.6795 28.8879 20.1847 28.8879C18.7577 28.8879 17.6011 27.7254 17.6011 26.2912C17.6011 24.8571 18.7577 23.6946 20.1847 23.6946C21.6117 23.6946 22.7684 24.8571 22.7684 26.2912Z" fill="white"/>
<path d="M81.7596 34.4267C81.6945 34.6232 81.555 34.7729 81.4155 34.9132C79.0429 37.2806 76.6795 39.6387 74.3163 42.006C72.3067 44.0178 70.2969 46.0295 68.2778 48.0413C65.9798 50.3338 63.6816 52.6356 61.3834 54.9281C60.2483 56.0603 59.1132 57.1832 57.978 58.3155C57.9129 58.3809 57.8571 58.437 57.792 58.4932C57.5872 58.6522 57.336 58.5587 57.2895 58.2966C57.2803 58.2218 57.2803 58.147 57.2803 58.0628C57.2803 55.3585 57.2803 52.645 57.2803 49.9408C57.2803 49.7536 57.336 49.6227 57.4663 49.4823C59.9692 46.9746 62.4628 44.4668 64.9655 41.9685C66.3705 40.5556 67.7848 39.1427 69.199 37.7298C70.6039 36.3169 72.0181 34.9038 73.4231 33.4909C74.7535 32.1623 76.0748 30.8242 77.4054 29.4955C77.4333 29.4674 77.4611 29.4393 77.489 29.4113C77.5822 29.2803 77.6658 29.3178 77.7682 29.4207C79.0242 30.6838 80.2803 31.9565 81.5365 33.2196C81.648 33.3319 81.7318 33.4536 81.7784 33.6126C81.8063 33.65 81.7969 33.6875 81.7969 33.725C81.8063 33.7904 81.7784 33.8559 81.8249 33.9027C81.8249 33.9775 81.8249 34.0617 81.8249 34.1367C81.7784 34.1928 81.8063 34.2582 81.7969 34.3144C81.7876 34.3519 81.7969 34.3892 81.7596 34.4267Z" fill="white"/>
<path d="M55.3265 54.0296C55.3265 55.3772 55.3265 56.7151 55.3265 58.0626C55.3265 58.1282 55.3265 58.1936 55.3265 58.2684C55.3265 58.4462 55.1962 58.5211 55.0659 58.5866C54.9449 58.6614 54.8613 58.5397 54.796 58.4743C54.424 58.1187 54.0612 57.7632 53.6982 57.3982C51.5397 55.2368 49.381 53.0752 47.2132 50.9137C45.5198 49.2201 43.8265 47.5359 42.1331 45.8422C40.9793 44.6913 39.8255 43.5403 38.6719 42.3895C36.9691 40.6864 35.2573 38.9835 33.5545 37.2804C32.7172 36.4383 31.8704 35.6055 31.033 34.7727C30.9121 34.6511 30.7911 34.5294 30.7261 34.3517C30.5865 33.9492 30.6702 33.5938 30.9773 33.2944C31.5449 32.7236 32.1217 32.1434 32.6893 31.5726C33.3777 30.8801 34.0662 30.1878 34.7454 29.5047C34.9967 29.2614 34.9408 29.2614 35.1829 29.4953C37.025 31.3386 38.858 33.1821 40.7003 35.0254C43.6311 37.9635 46.5526 40.9016 49.4834 43.8397C50.8697 45.234 52.2562 46.6282 53.6517 48.0224C54.1448 48.5182 54.6473 49.0142 55.1497 49.5102C55.2706 49.6319 55.3171 49.7534 55.3171 49.9125C55.3265 51.2787 55.3265 52.6542 55.3265 54.0296Z" fill="white"/>
<path d="M76.4471 28.3163C69.9992 34.7541 63.57 41.1825 57.1315 47.6014C57.0385 47.5079 57.0756 47.4143 57.0756 47.3301C57.0756 44.5416 57.0756 41.7627 57.0664 38.9742C57.0664 38.7963 57.1129 38.6653 57.2431 38.5438C62.0813 33.6874 66.9195 28.8217 71.7484 23.9653C71.7857 23.928 71.8228 23.8999 71.8507 23.8624C71.9066 23.7969 71.9625 23.7969 72.0182 23.853C72.0461 23.8811 72.0741 23.9092 72.102 23.9372C73.5162 25.3596 74.9305 26.7819 76.3447 28.204C76.382 28.2321 76.4006 28.2696 76.4471 28.3163Z" fill="white"/>
<path d="M55.4846 47.6201C49.0276 41.1638 42.5983 34.7447 36.1597 28.3164C36.2341 28.2322 36.2993 28.1668 36.3551 28.1106C37.7136 26.7444 39.0719 25.3783 40.4305 24.0121C40.477 23.9654 40.5235 23.9186 40.57 23.8719C40.6258 23.8063 40.6816 23.8157 40.7374 23.8719C40.7839 23.9186 40.8304 23.9654 40.8769 24.0121C43.3891 26.5387 45.892 29.0556 48.4041 31.582C50.6929 33.8839 52.9911 36.1857 55.2892 38.4877C55.4567 38.6561 55.5126 38.8152 55.5126 39.049C55.5032 41.7814 55.5126 44.5229 55.5032 47.2553C55.5219 47.3488 55.5405 47.4611 55.4846 47.6201Z" fill="white"/>
<path d="M55.5128 36.7566C55.4012 36.6444 55.3174 36.5789 55.2523 36.5041C50.7863 32.0126 46.3201 27.5212 41.8541 23.0298C41.5936 22.7677 41.6122 22.8333 41.8449 22.59C43.2591 21.1771 44.6734 19.7735 46.0876 18.3605C46.2644 18.1828 46.2644 18.1921 46.4411 18.3605C48.2648 20.1571 50.0977 21.9631 51.9213 23.7597C53.0657 24.8918 54.2101 26.0147 55.3639 27.1468C55.4756 27.2499 55.5313 27.362 55.5313 27.5212C55.5221 30.5248 55.5313 33.5379 55.5313 36.5414C55.5221 36.5975 55.5128 36.6444 55.5128 36.7566Z" fill="white"/>
<path d="M57.0756 36.7284C57.0756 36.6068 57.0756 36.5226 57.0756 36.4384C57.0756 33.5002 57.0756 30.5621 57.0664 27.624C57.0664 27.4088 57.1315 27.2684 57.2804 27.1186C59.0203 25.4157 60.7601 23.7034 62.5 21.991C63.449 21.0553 64.398 20.1289 65.3472 19.1931C65.6262 18.9125 65.9146 18.6504 66.1938 18.3698C66.3798 18.1827 66.3798 18.2295 66.5287 18.3791C66.5846 18.4447 66.659 18.5008 66.7149 18.557C68.0547 19.895 69.4037 21.2424 70.7436 22.5805C70.7808 22.618 70.8179 22.6647 70.8646 22.7022C70.9482 22.7676 70.9576 22.8424 70.8738 22.908C70.8273 22.9455 70.7902 22.9922 70.7528 23.0297C66.2962 27.5117 61.8302 32.0031 57.3734 36.4851C57.2989 36.5601 57.2245 36.663 57.0756 36.7284Z" fill="white"/>
<path d="M57.094 25.1163C57.0569 25.0134 57.0754 24.9104 57.0754 24.8169C57.0754 19.8389 57.0754 14.8609 57.0754 9.88292C57.0754 9.80807 57.0754 9.72386 57.0754 9.64899C57.0754 9.54607 57.1127 9.45249 57.215 9.41506C57.3173 9.37764 57.4197 9.37764 57.5127 9.46185C57.55 9.48993 57.5872 9.52735 57.6151 9.56478C60.118 12.0818 62.6208 14.5989 65.1237 17.1066C65.1423 17.1253 65.1608 17.1441 65.1888 17.1722C65.3097 17.3031 65.3097 17.3031 65.1702 17.4435C64.9283 17.6774 64.6864 17.9112 64.4444 18.1453C63.1884 19.3524 61.923 20.5594 60.6669 21.7665C59.5225 22.8613 58.3873 23.9559 57.2429 25.0508C57.2058 25.0696 57.1778 25.1163 57.094 25.1163Z" fill="white"/>
<path d="M55.466 25.1257C52.7491 22.5243 50.0324 19.9231 47.3247 17.3218C47.362 17.2095 47.4364 17.1627 47.5015 17.0972C49.9857 14.5989 52.4793 12.0912 54.9636 9.59282C55.0008 9.55538 55.0473 9.50861 55.0846 9.47117C55.1776 9.37761 55.2892 9.36824 55.4101 9.42439C55.5125 9.47117 55.531 9.56474 55.5218 9.66767C55.5218 9.72382 55.5218 9.77996 55.5218 9.84546C55.5218 14.8328 55.5218 19.8201 55.5218 24.8169C55.5218 24.9103 55.5218 25.0134 55.5218 25.1069C55.5033 25.1069 55.4845 25.1163 55.466 25.1257Z" fill="white"/>
</svg>
