<svg width="34" height="32" viewBox="0 0 34 32" fill="none" xmlns="http://www.w3.org/2000/svg">
<path d="M23.3527 20.6608L22.5185 21.4913C22.5185 21.4913 20.533 23.464 15.1155 18.0776C9.698 12.6913 11.6835 10.7186 11.6835 10.7186L12.2078 10.1943C13.504 8.9073 13.6268 6.8393 12.4957 5.32863L10.1857 2.24313C8.785 0.373133 6.08083 0.125633 4.47667 1.72063L1.59833 4.58063C0.804501 5.37263 0.272834 6.39563 0.337 7.5323C0.502 10.4418 1.81833 16.699 9.159 23.9993C16.9452 31.7396 24.251 32.0476 27.2375 31.769C28.1835 31.681 29.0048 31.2006 29.6667 30.5406L32.27 27.952C34.03 26.2048 33.535 23.2073 31.2837 21.9845L27.782 20.0796C26.3043 19.2785 24.5077 19.5131 23.3527 20.6608Z" fill="black"/>
</svg>
