<svg width="20" height="18" viewBox="0 0 20 18" fill="none" xmlns="http://www.w3.org/2000/svg">
<path d="M4.56045 3.46311C5.12387 3.46311 5.58061 2.99586 5.58061 2.41948C5.58061 1.8431 5.12387 1.37585 4.56045 1.37585C3.99703 1.37585 3.54028 1.8431 3.54028 2.41948C3.54028 2.99586 3.99703 3.46311 4.56045 3.46311Z" stroke="white" stroke-miterlimit="10"/>
<path d="M2.5202 6.94185C2.5202 6.94185 2.86026 5.44216 3.54037 5.09428C4.22048 4.7464 4.90059 4.7464 5.5807 5.09428C6.26081 5.44216 6.60086 6.94185 6.60086 6.94185" stroke="white" stroke-width="1.2" stroke-linecap="round" stroke-linejoin="round"/>
<path d="M16.4597 6.70664C17.0232 6.70664 17.4799 6.2394 17.4799 5.66301C17.4799 5.08663 17.0232 4.61938 16.4597 4.61938C15.8963 4.61938 15.4396 5.08663 15.4396 5.66301C15.4396 6.2394 15.8963 6.70664 16.4597 6.70664Z" stroke="white" stroke-miterlimit="10"/>
<path d="M14.4194 10.1854C14.4194 10.1854 14.7594 8.68569 15.4395 8.33781C16.1196 7.98994 16.7998 7.98994 17.4799 8.33781C18.16 8.68569 18.5 10.185 18.5 10.185" stroke="white" stroke-width="1.2" stroke-linecap="round" stroke-linejoin="round"/>
<path d="M7.61861 13.9022C8.18204 13.9022 8.63878 13.435 8.63878 12.8586C8.63878 12.2822 8.18204 11.8149 7.61861 11.8149C7.05519 11.8149 6.59845 12.2822 6.59845 12.8586C6.59845 13.435 7.05519 13.9022 7.61861 13.9022Z" stroke="white" stroke-miterlimit="10"/>
<path d="M5.57828 17.3809C5.57828 17.3809 5.91833 15.8812 6.59844 15.5333C7.27855 15.1855 7.95866 15.1855 8.63877 15.5333C9.31888 15.8812 9.65894 17.3806 9.65894 17.3806M15.2899 3.51038C13.8552 1.779 11.7135 0.680054 9.32126 0.680054C8.37931 0.680054 7.4768 0.850513 6.64061 1.16256M10.8287 16.5338C13.6216 15.9758 15.8826 13.898 16.7549 11.1758M1.52959 7.98129C1.50974 8.21404 1.49987 8.44757 1.5 8.68121C1.5 11.4552 2.87994 13.8994 4.97604 15.335" stroke="white" stroke-width="1.2" stroke-linecap="round" stroke-linejoin="round"/>
</svg>
