<svg width="18" height="21" viewBox="0 0 18 21" fill="none" xmlns="http://www.w3.org/2000/svg">
<g clip-path="url(#clip0_734_353)">
<path d="M8.27581 15.7101C9.00027 15.1965 9.55028 14.4484 9.84452 13.5762C10.1388 12.7041 10.1616 11.7542 9.90966 10.8672C9.65772 9.98016 9.14438 9.203 8.44556 8.65064C7.74673 8.09828 6.89952 7.80005 6.0292 7.80005C5.15888 7.80005 4.31167 8.09828 3.61284 8.65064C2.91402 9.203 2.40068 9.98016 2.14874 10.8672C1.89681 11.7542 1.91965 12.7041 2.21388 13.5762C2.50812 14.4484 3.05814 15.1965 3.78259 15.7101C2.47212 16.2244 1.35295 17.1761 0.59207 18.4232C0.552081 18.4865 0.524304 18.5576 0.510355 18.6324C0.496406 18.7072 0.496562 18.7842 0.510814 18.859C0.525067 18.9337 0.553132 19.0047 0.593377 19.0678C0.633622 19.1309 0.685246 19.1849 0.745246 19.2266C0.805247 19.2682 0.872428 19.2968 0.942884 19.3106C1.01334 19.3244 1.08567 19.3231 1.15566 19.3068C1.22565 19.2906 1.29191 19.2597 1.35059 19.216C1.40927 19.1722 1.4592 19.1165 1.49747 19.052C1.98827 18.2482 2.65987 17.5877 3.45127 17.1304C4.24267 16.6732 5.1288 16.4337 6.0292 16.4337C6.9296 16.4337 7.81573 16.6732 8.60713 17.1304C9.39854 17.5877 10.0701 18.2482 10.5609 19.052C10.6402 19.1775 10.7627 19.2647 10.9019 19.2947C11.041 19.3248 11.1858 19.2954 11.3047 19.2128C11.4237 19.1302 11.5073 19.001 11.5375 18.8533C11.5678 18.7055 11.5422 18.551 11.4663 18.4232C10.7055 17.1761 9.58628 16.2244 8.27581 15.7101ZM3.05625 12.1186C3.05625 11.4925 3.23061 10.8804 3.55728 10.3598C3.88395 9.83925 4.34826 9.4335 4.8915 9.1939C5.43474 8.95431 6.0325 8.89162 6.6092 9.01376C7.18589 9.13591 7.71562 9.4374 8.1314 9.88012C8.54717 10.3228 8.83032 10.8869 8.94503 11.501C9.05974 12.115 9.00087 12.7515 8.77585 13.33C8.55084 13.9084 8.16979 14.4028 7.68089 14.7507C7.19199 15.0985 6.6172 15.2842 6.0292 15.2842C5.241 15.2832 4.48533 14.9494 3.92799 14.3559C3.37065 13.7625 3.05714 12.9578 3.05625 12.1186ZM17.2548 19.2196C17.1347 19.303 16.9885 19.3322 16.8482 19.3007C16.708 19.2693 16.5852 19.1798 16.5068 19.052C16.0166 18.2477 15.3451 17.5869 14.5536 17.1299C13.762 16.6728 12.8756 16.434 11.9751 16.4353C11.8318 16.4353 11.6943 16.3747 11.5929 16.2667C11.4915 16.1588 11.4346 16.0124 11.4346 15.8597C11.4346 15.7071 11.4915 15.5607 11.5929 15.4528C11.6943 15.3448 11.8318 15.2842 11.9751 15.2842C12.4129 15.2837 12.8452 15.1803 13.2412 14.9814C13.6371 14.7824 13.9869 14.4928 14.2655 14.1332C14.5441 13.7736 14.7447 13.3529 14.853 12.9012C14.9612 12.4495 14.9744 11.9779 14.8917 11.5201C14.8089 11.0623 14.6322 10.6296 14.3742 10.253C14.1161 9.87636 13.7832 9.56506 13.3991 9.34132C13.015 9.11759 12.5892 8.98695 12.1522 8.95874C11.7152 8.93053 11.2777 9.00544 10.8711 9.17813C10.8048 9.20865 10.7334 9.22471 10.6611 9.22536C10.5889 9.22601 10.5173 9.21123 10.4505 9.18191C10.3837 9.15259 10.3231 9.10931 10.2723 9.05463C10.2215 8.99995 10.1815 8.93499 10.1547 8.86357C10.1279 8.79215 10.1148 8.71574 10.1161 8.63883C10.1175 8.56193 10.1334 8.4861 10.1627 8.41582C10.1921 8.34555 10.2344 8.28225 10.2871 8.22968C10.3398 8.17711 10.4019 8.13632 10.4697 8.10973C11.4004 7.71449 12.4356 7.70027 13.3756 8.0698C14.3156 8.43934 15.0937 9.16644 15.56 10.1108C16.0262 11.0553 16.1474 12.15 15.9003 13.184C15.6532 14.218 15.0552 15.1179 14.2217 15.7101C15.5322 16.2244 16.6514 17.1761 17.4122 18.4232C17.4905 18.551 17.5179 18.7068 17.4884 18.8561C17.4589 19.0055 17.3749 19.1362 17.2548 19.2196Z" fill="white"/>
</g>
<path d="M12.2429 4.28001C12.2429 5.99551 10.8214 7.40001 9.05062 7.40001C7.27988 7.40001 5.85835 5.99551 5.85835 4.28001C5.85835 2.56451 7.27988 1.16001 9.05062 1.16001C10.8214 1.16001 12.2429 2.56451 12.2429 4.28001Z" stroke="white" stroke-width="0.8"/>
<path d="M7.17857 3.95993L8.39286 5.23993L10.8214 2.67993" stroke="white" stroke-width="0.77"/>
<defs>
<clipPath id="clip0_734_353">
<rect width="17" height="15.36" fill="white" transform="translate(0.500008 5.23999)"/>
</clipPath>
</defs>
</svg>
