<svg width="18" height="19" viewBox="0 0 18 19" fill="none" xmlns="http://www.w3.org/2000/svg">
<path d="M0.700008 2.04004C0.700008 1.32207 1.28204 0.740039 2.00001 0.740039H8.20742C8.53836 0.740039 8.85683 0.866248 9.09793 1.09294L13.6762 5.39767C13.9375 5.64336 14.0857 5.9861 14.0857 6.34477V14.68C14.0857 15.398 13.5037 15.98 12.7857 15.98H2.00001C1.28204 15.98 0.700008 15.398 0.700008 14.68V2.04004Z" stroke="white" stroke-width="1.4"/>
<path d="M9.70001 5.10004V1.72468L13.0904 5.10004H9.70001Z" fill="white" stroke="white" stroke-width="1.4"/>
<ellipse cx="13.5" cy="14.12" rx="4.5" ry="4.48" fill="#197ec6"/>
<path d="M10.6072 14.1201L12.5357 16.3601L16.7143 12.5201M2.89289 9.32007H10.6072M2.89289 11.8801H9.00003" stroke="white" stroke-width="1.4"/>
</svg>
