<svg width="180" height="25" viewBox="0 0 180 25" fill="none" xmlns="http://www.w3.org/2000/svg">
<path d="M168.041 17.6134C168.584 19.5897 170.055 20.5778 172.455 20.5778C174 20.5778 175.169 20.0522 175.962 19.001L179.218 20.8932C177.673 23.1428 175.398 24.2676 172.393 24.2676C169.805 24.2676 167.728 23.4792 166.163 21.9024C164.598 20.3256 163.815 18.3388 163.815 15.942C163.815 13.5663 164.587 11.59 166.132 10.0132C167.676 8.41537 169.659 7.61646 172.08 7.61646C174.376 7.61646 176.264 8.41537 177.746 10.0132C179.249 11.611 180 13.5873 180 15.942C180 16.4676 179.948 17.0248 179.844 17.6134H168.041ZM167.979 14.4598H175.962C175.732 13.3876 175.252 12.5887 174.522 12.0631C173.812 11.5375 172.998 11.2747 172.08 11.2747C170.994 11.2747 170.097 11.5585 169.387 12.1261C168.678 12.6728 168.208 13.4507 167.979 14.4598Z" fill="white"/>
<path d="M162.269 11.9686H158.732V18.5282C158.732 19.0748 158.867 19.4743 159.139 19.7265C159.41 19.9788 159.807 20.126 160.328 20.1681C160.85 20.1891 161.497 20.1786 162.269 20.1365V23.8263C159.494 24.1416 157.532 23.8788 156.384 23.0378C155.257 22.1969 154.693 20.6937 154.693 18.5282V11.9686H151.97V8.05814H154.693V4.87298L158.732 3.64307V8.05814H162.269V11.9686Z" fill="white"/>
<path d="M145.616 8.05796H149.654V23.8261H145.616V21.9654C144.405 23.5002 142.704 24.2676 140.513 24.2676C138.426 24.2676 136.631 23.4687 135.128 21.8708C133.646 20.252 132.905 18.2757 132.905 15.942C132.905 13.6083 133.646 11.6426 135.128 10.0447C136.631 8.42588 138.426 7.61646 140.513 7.61646C142.704 7.61646 144.405 8.38384 145.616 9.9186V8.05796ZM138.165 19.1587C138.979 19.9787 140.012 20.3886 141.264 20.3886C142.516 20.3886 143.549 19.9787 144.363 19.1587C145.198 18.3177 145.616 17.2455 145.616 15.942C145.616 14.6385 145.198 13.5768 144.363 12.7569C143.549 11.9159 142.516 11.4954 141.264 11.4954C140.012 11.4954 138.979 11.9159 138.165 12.7569C137.351 13.5768 136.944 14.6385 136.944 15.942C136.944 17.2455 137.351 18.3177 138.165 19.1587Z" fill="white"/>
<path d="M124.373 7.61646C126.168 7.61646 127.597 8.20513 128.662 9.38248C129.747 10.5598 130.29 12.1366 130.29 14.1129V23.8261H126.251V14.3967C126.251 13.4507 126.022 12.7148 125.562 12.1892C125.103 11.6636 124.456 11.4008 123.621 11.4008C122.703 11.4008 121.983 11.7057 121.461 12.3154C120.96 12.9251 120.71 13.8081 120.71 14.9644V23.8261H116.672V14.3967C116.672 13.4507 116.442 12.7148 115.983 12.1892C115.524 11.6636 114.877 11.4008 114.042 11.4008C113.144 11.4008 112.424 11.7057 111.882 12.3154C111.36 12.9251 111.099 13.8081 111.099 14.9644V23.8261H107.061V8.05796H111.099V9.72938C112.038 8.32076 113.489 7.61646 115.451 7.61646C117.371 7.61646 118.79 8.37332 119.708 9.88706C120.752 8.37332 122.307 7.61646 124.373 7.61646Z" fill="white"/>
<path d="M99.3262 23.8262V8.05811H103.365V23.8262H99.3262Z" fill="white"/>
<path d="M91.5908 23.8264V0.804932H95.6293V23.8264H91.5908Z" fill="white"/>
<path d="M79.4574 24.2682C76.1599 24.2682 73.4362 23.1644 71.2865 20.9569C69.1369 18.7494 68.062 16.0267 68.062 12.789C68.062 9.53026 69.1369 6.80763 71.2865 4.62112C73.4362 2.41358 76.1599 1.30981 79.4574 1.30981C81.4401 1.30981 83.2663 1.78286 84.936 2.72895C86.6265 3.65401 87.9414 4.91546 88.8805 6.51329L85.1551 8.68929C84.6125 7.70116 83.8403 6.93378 82.8385 6.38715C81.8367 5.8195 80.7097 5.53567 79.4574 5.53567C77.3286 5.53567 75.6068 6.20844 74.2919 7.55399C72.9979 8.89954 72.3509 10.6445 72.3509 12.789C72.3509 14.9124 72.9979 16.6469 74.2919 17.9925C75.6068 19.338 77.3286 20.0108 79.4574 20.0108C80.7097 20.0108 81.8367 19.7375 82.8385 19.1909C83.8611 18.6232 84.6334 17.8558 85.1551 16.8887L88.8805 19.0647C87.9414 20.6625 86.6369 21.9345 84.9673 22.8806C83.2976 23.8057 81.461 24.2682 79.4574 24.2682Z" fill="white"/>
<path d="M53.3145 23.8264V0.804932H57.3529V23.8264H53.3145Z" fill="white"/>
<path d="M45.6141 8.05796H49.6526V23.8261H45.6141V21.9654C44.4036 23.5002 42.7026 24.2676 40.5112 24.2676C38.4241 24.2676 36.6292 23.4687 35.1265 21.8708C33.6447 20.252 32.9038 18.2757 32.9038 15.942C32.9038 13.6083 33.6447 11.6426 35.1265 10.0447C36.6292 8.42589 38.4241 7.61646 40.5112 7.61646C42.7026 7.61646 44.4036 8.38384 45.6141 9.9186V8.05796ZM38.1632 19.1587C38.9772 19.9787 40.0103 20.3886 41.2625 20.3886C42.5148 20.3886 43.5479 19.9787 44.3618 19.1587C45.1967 18.3177 45.6141 17.2455 45.6141 15.942C45.6141 14.6385 45.1967 13.5768 44.3618 12.7569C43.5479 11.9159 42.5148 11.4954 41.2625 11.4954C40.0103 11.4954 38.9772 11.9159 38.1632 12.7569C37.3493 13.5768 36.9423 14.6385 36.9423 15.942C36.9423 17.2455 37.3493 18.3177 38.1632 19.1587Z" fill="white"/>
<path d="M19.0623 17.6134C19.6049 19.5897 21.0763 20.5778 23.4764 20.5778C25.0208 20.5778 26.1896 20.0522 26.9827 19.001L30.2385 20.8932C28.6941 23.1428 26.4192 24.2676 23.4138 24.2676C20.8258 24.2676 18.7492 23.4792 17.1839 21.9024C15.6186 20.3256 14.8359 18.3388 14.8359 15.942C14.8359 13.5663 15.6082 11.59 17.1526 10.0132C18.697 8.41537 20.6797 7.61646 23.1007 7.61646C25.3965 7.61646 27.2853 8.41537 28.7671 10.0132C30.2698 11.611 31.0212 13.5873 31.0212 15.942C31.0212 16.4676 30.969 17.0248 30.8646 17.6134H19.0623ZM18.9996 14.4598H26.9827C26.7531 13.3876 26.2731 12.5887 25.5426 12.0631C24.833 11.5375 24.0191 11.2747 23.1007 11.2747C22.0155 11.2747 21.118 11.5585 20.4084 12.1261C19.6988 12.6728 19.2292 13.4507 18.9996 14.4598Z" fill="white"/>
<path d="M16.2686 1.75098V5.91376H10.3518V23.8263H6.03154V5.91376H0.145996V1.75098H16.2686Z" fill="white"/>
<ellipse cx="101.362" cy="3.50029" rx="2.56808" ry="2.58696" fill="white"/>
</svg>
